<svg xmlns:inkscape="http://www.inkscape.org/namespaces/inkscape" xmlns:sodipodi="http://sodipodi.sourceforge.net/DTD/sodipodi-0.dtd" xmlns="http://www.w3.org/2000/svg" xmlns:svg="http://www.w3.org/2000/svg" width="20" height="20" viewBox="0 0 20 20" fill="none" version="1.1" id="svg1" sodipodi:docname="exequextrerrors.svg" xml:space="preserve"><sodipodi:namedview id="namedview1" pagecolor="#ffffff" bordercolor="#000000" borderopacity="0.25" inkscape:showpageshadow="2" inkscape:pageopacity="0.0" inkscape:pagecheckerboard="0" inkscape:deskcolor="#d1d1d1" showgrid="false" fill="#000000"><inkscape:page x="0" y="0" width="20" height="20" id="page2" margin="0" bleed="0" fill="#000000"/></sodipodi:namedview><defs id="defs1" fill="#000000"/><g style="fill:#db404b;fill-opacity:1" id="g39" transform="matrix(0.025,0,0,0.025,-1.9999988,22)"><path d="m 400,-320 q 100,0 170,-70 70,-70 70,-170 0,-100 -70,-170 -70,-70 -170,-70 -100,0 -170,70 -70,70 -70,170 0,100 70,170 70,70 170,70 z m -42,-98 226,-227 -57,-57 -169,170 -85,-84 -57,56 z m 42,178 q -134,0 -227,-93 -93,-93 -93,-227 0,-134 93,-227 93,-93 227,-93 134,0 227,93 93,93 93,227 0,56 -17.5,105.5 Q 685,-405 653,-364 l 227,228 -56,56 -228,-227 q -41,32 -90.5,49.5 Q 456,-240 400,-240 Z m 0,-320 z" id="path1-57" style="fill:#db404b;fill-opacity:1"/></g></svg>