<svg height="2.9cm" viewBox="0 0 144 144" width="2.92cm" xmlns="http://www.w3.org/2000/svg"><g stroke-linecap="square" stroke-miterlimit="10"><path d="m-10-31h166v246h-166z" fill="#fff"/><path d="m3.4688 3.1719h69.3752v69.3751h-69.3752zm42.6562 66.0941v-62.6566h-5l-.156.3906q-.86.625-1.766 1.0156-.891.3906-1.906 1.0938-1.172.7812-2.235 1.4526-1.046.657-2.374 1.282-1.172.703-2.422 1.297-1.25.578-2.422.968-1.094.625-2.266 1.016-1.172.391-2.344.703l-1.328.234v9.61l1.953-.391q1.094-.312 2.188-.625 1.094-.312 2.187-.703 1.172-.469 2.188-1.015 1.016-.547 2.031-.938l3.516-2.109q.078 0 .156-.079.078 0 .156-.031.078-.047.235-.047v49.532zm26.875 3.437h69.45v69.457h-69.45zm55.16 52.347v-8.91h-7.11v-39.921h-10.16l-.16.937q-1.17 2.266-2.46 4.688-1.29 2.422-2.77 4.922-1.56 2.578-3.28 5.203-1.72 2.609-3.517 5.187-1.797 2.578-3.672 5.044-1.875 2.46-3.906 4.96-2.031 2.57-3.953 4.89-1.906 2.29-3.938 4.48l-.625.39v8.13h28.831v13.83h9.61v-13.83zm-25.94-18.83q1.33-1.8 2.66-3.67 1.32-1.88 2.73-4.066.86-1.328 1.67-2.765.83-1.453 2.16-3.016v23.437h-16.721l2.5-3.44q1.172-1.4 2.422-3.04 1.249-1.64 2.579-3.44zm23.12-43.829v6.875h-37.34l.234-2.657q0-1.875.157-3.703.156-1.844.625-3.406.39-1.484 1.015-3.156.625-1.688 1.641-3.016 1.016-1.328 2.266-2.734 1.25-1.406 2.734-2.813 1.562-1.328 3.468-2.765 1.92-1.454 4.19-3.016 1.56-1.172 2.97-2.375 1.4-1.219 2.42-2.234 2.34-2.344 3.67-4.219.63-1.172 1.13-2.219.51-1.062.82-2.234.16-1.016.35-2.219.2-1.219.2-2.391 0-1.484-.28-2.968-.27-1.485-.66-2.579-.47-1.015-1.01-1.828-.55-.828-1.33-1.453-.7-.703-1.56-1.25-.86-.547-1.88-.859-2.11-.625-4.45-.625-1.02 0-2 .125-.97.109-1.83.266-1.015.312-1.999.75-.969.421-1.829.812-.859.625-1.718 1.172-.86.547-1.719 1.172-.859.703-1.641 1.453-.781.734-1.64 1.594v-7.344q1.562-1.406 3.156-2.531 1.609-1.141 3.328-1.8441 1.875-.7031 4.012-1.125 2.16-.4375 4.66-.4375 3.75 0 6.95 1.1718 3.21 1.1719 5.39 3.0468 2.19 2.11 3.6 5.234.78 1.407 1.09 3.438.31 2.031.31 4.062 0 1.719-.28 3.282-.26 1.562-.73 3.047-.31 1.406-.94 2.812-.62 1.406-1.33 2.735-.86 1.328-1.87 2.5-1.02 1.171-2.35 2.343-1.32 1.094-2.78 2.391-1.44 1.281-3 2.375-2.18 1.562-3.95 2.859-1.75 1.282-3.16 2.375-1.33 1.094-2.42 2.235-1.092 1.125-1.796 2.14-.859.86-1.453 2.032-.578 1.171-.89 2.187-.313.859-.438 1.953-.109 1.094-.109 1.563zm-75.387 48.199q1.797 2.03 2.891 4.46.625 1.09.781 2.5.156 1.4.156 2.89 0 2.11-.281 3.9-.266 1.8-1.125 3.52-.859 1.64-1.875 3.05-1.016 1.4-2.422 2.57-1.328 1.33-3.016 2.19-1.671.86-3.703 1.49-1.875.7-4.031 1.01-2.14.31-4.484.31-4.297 0-7.656-.86-3.36-.85-5.938-2.42v-7.34q2.969 2.34 6.406 3.59 3.438 1.25 7.422 1.25 1.563 0 2.969-.28 1.406-.26 2.578-.65 1.328-.32 2.453-.86 1.141-.55 2-1.25 1.016-.86 1.641-1.75.625-.91 1.25-1.93.39-1.17.656-2.34.281-1.17.281-2.66 0-11.56-16.718-11.56h-4.844v-5.94h4.609q14.844 0 14.844-10.933 0-10.235-11.328-10.235-3.203 0-6.297 1.141-3.078 1.125-5.813 3.156v-6.797q5.782-3.203 13.829-3.203 1.874 0 3.546.282 1.688.265 3.172.656 3.203 1.172 5.156 2.891 2.344 1.953 3.516 4.609 1.094 2.656 1.094 5.781 0 11.722-11.875 15.152v.24q1.562.16 2.891.51 1.328.35 2.656.97 2.734 1.25 4.609 2.89z" fill="#fb0000"/></g></svg>