<svg xmlns:inkscape="http://www.inkscape.org/namespaces/inkscape" xmlns:sodipodi="http://sodipodi.sourceforge.net/DTD/sodipodi-0.dtd" xmlns="http://www.w3.org/2000/svg" xmlns:svg="http://www.w3.org/2000/svg" width="18" height="18" viewBox="0 0 18 18" fill="none" version="1.1" id="svg1" sodipodi:docname="exequextrerrors.svg" xml:space="preserve"><sodipodi:namedview id="namedview1" pagecolor="#ffffff" bordercolor="#000000" borderopacity="0.25" inkscape:showpageshadow="2" inkscape:pageopacity="0.0" inkscape:pagecheckerboard="0" inkscape:deskcolor="#d1d1d1" showgrid="false" fill="#000000"><inkscape:page x="0" y="0" width="18" height="18" id="page2" margin="0" bleed="0" fill="#000000"/></sodipodi:namedview><defs id="defs1" fill="#000000"/><g style="fill:#db404b;fill-opacity:1" id="g40" transform="matrix(0.025,0,0,0.025,-3.0000014,21)"><path d="m 480,-400 q -33,0 -56.5,-23.5 Q 400,-447 400,-480 q 0,-33 23.5,-56.5 23.5,-23.5 56.5,-23.5 33,0 56.5,23.5 23.5,23.5 23.5,56.5 0,33 -23.5,56.5 Q 513,-400 480,-400 Z m 0,280 Q 341,-120 239,-211.5 137,-303 122,-440 h 82 q 14,104 92.5,172 78.5,68 183.5,68 117,0 198.5,-81.5 Q 760,-363 760,-480 760,-597 678.5,-678.5 597,-760 480,-760 q -69,0 -129,32 -60,32 -101,88 h 110 v 80 H 120 v -240 h 80 v 94 q 51,-64 124.5,-99 73.5,-35 155.5,-35 75,0 140.5,28.5 65.5,28.5 114,77 48.5,48.5 77,114 28.5,65.5 28.5,140.5 0,75 -28.5,140.5 -28.5,65.5 -77,114 -48.5,48.5 -114,77 Q 555,-120 480,-120 Z" id="path1-9" style="fill:#db404b;fill-opacity:1"/></g></svg>