<svg enable-background="new 0 0 512 512" height="512" viewBox="0 0 512 512" width="512" xmlns="http://www.w3.org/2000/svg"><path d="m257 0c-140.7 0-257 114.3-257 255s116.3 257 257 257 255-116.3 255-257-114.3-255-255-255z" fill="#f00" xmlns="http://www.w3.org/2000/svg"/><path d="m512 255c0 140.7-114.3 257-255 257v-512c140.7 0 255 114.3 255 255z" fill="#f00" xmlns="http://www.w3.org/2000/svg"/><path d="m373.7 329.099c11.7 11.7 11.7 30.901 0 42.601-11.7 11.699-30.601 11.699-42.601 0l-74.099-74.401-76.099 74.401c-11.7 11.699-30.901 11.699-42.601 0-11.7-11.7-11.7-30.901 0-42.601l76.401-74.099-76.401-74.101c-11.7-11.699-11.7-30.899 0-42.599s30.601-11.7 42.601 0l76.099 74.399 74.099-74.399c12.001-11.7 30.901-11.7 42.601 0s11.7 30.901 0 42.599l-74.401 74.101z" xmlns="http://www.w3.org/2000/svg"/><path d="m373.7 329.099c11.7 11.7 11.7 30.901 0 42.601-11.7 11.699-30.601 11.699-42.601 0l-74.099-74.401v-84.6l74.099-74.399c12.001-11.7 30.901-11.7 42.601 0s11.7 30.901 0 42.599l-74.401 74.101z" xmlns="http://www.w3.org/2000/svg"/></svg>