<svg enable-background="new 0 0 512 512" height="512" viewBox="0 0 471.04 471.04" width="512" xmlns="http://www.w3.org/2000/svg"><circle cx="235.52" cy="235.52" fill="#12c072" r="235.52"/><g fill="#fff" transform="matrix(.7 0 0 .7 70.656001 70.656005)"><path d="m414.72 112.64h-49.152l-27.136-40.96c-10.24-15.36-28.16-24.576-46.592-24.576h-112.64c-18.432 0-36.352 9.216-46.592 24.576l-27.136 40.96h-49.152c-31.232-0-56.32 25.088-56.32 56.32v198.656c0 31.232 25.088 56.32 56.32 56.32h358.4c31.232 0 56.32-25.088 56.32-56.32v-198.656c0-31.232-25.088-56.32-56.32-56.32zm-179.2 265.216c-70.144 0-126.976-56.832-126.976-126.976s56.832-126.464 126.976-126.464 126.976 56.832 126.976 126.976c0 69.632-56.832 126.464-126.976 126.464zm172.032-185.856c-.512 0-1.024 0-2.048 0h-20.48c-9.216-.512-16.384-8.192-15.872-17.408.512-8.704 7.168-15.36 15.872-15.872h20.48c9.216-.512 16.896 6.656 17.408 15.872s-6.144 16.896-15.36 17.408z"/><path d="m235.52 180.736c-38.912 0-70.656 31.744-70.656 70.656s31.744 70.144 70.656 70.144 70.656-31.744 70.656-70.656-31.744-70.144-70.656-70.144z"/></g></svg>