<?xml version="1.0" encoding="UTF-8" standalone="no"?>
<svg
   width="24.000002"
   height="24"
   viewBox="0 0 24.000002 24"
   fill="none"
   version="1.1"
   id="svg1"
   sodipodi:docname="exequextrerrors.svg"
   xml:space="preserve"
   xmlns:inkscape="http://www.inkscape.org/namespaces/inkscape"
   xmlns:sodipodi="http://sodipodi.sourceforge.net/DTD/sodipodi-0.dtd"
   xmlns="http://www.w3.org/2000/svg"
   xmlns:svg="http://www.w3.org/2000/svg"><sodipodi:namedview
     id="namedview1"
     pagecolor="#ffffff"
     bordercolor="#000000"
     borderopacity="0.25"
     inkscape:showpageshadow="2"
     inkscape:pageopacity="0.0"
     inkscape:pagecheckerboard="0"
     inkscape:deskcolor="#d1d1d1"
     showgrid="false"><inkscape:page
       x="0"
       y="0"
       width="24.000002"
       height="24"
       id="page2"
       margin="0"
       bleed="0" /></sodipodi:namedview><defs
     id="defs1" /><path
     style="opacity:0.68;fill:#f46f3e;fill-opacity:1;stroke-width:0.0854357"
     d="M 10.735993,23.912519 C 5.4634211,23.354735 1.1351451,19.38643 0.09623309,14.157639 c -0.159565,-0.803079 -0.159565,-3.624705 0,-4.4277846 0.262291,-1.3201004 0.99561301,-3.1453079 1.70718901,-4.2491265 1.823698,-2.8289745 4.771037,-4.79248739 8.075345,-5.37978189 1.0924979,-0.1941763 3.1113209,-0.1952841 4.2004079,-0.00231 3.286693,0.58238 6.257707,2.56251319 8.075345,5.38208689 0.437207,0.6782098 1.032018,1.9489123 1.308665,2.7957181 0.449316,1.3753415 0.517342,1.872737 0.513203,3.75245 -0.0034,1.549205 -0.02417,1.784072 -0.229831,2.600819 -0.273226,1.085065 -0.524423,1.762823 -1.008494,2.721037 -1.687886,3.341162 -4.981968,5.79823 -8.616026,6.42673 -0.945336,0.163493 -2.522504,0.226391 -3.386044,0.135037 z m 4.111374,-4.035099 c 1.177256,-0.439241 2.063234,-1.007909 3.007877,-1.93062 0.455484,-0.444907 0.992826,-1.053314 1.194094,-1.352016 1.933846,-2.870011 1.923409,-6.9465746 -0.0251,-9.8025941 C 18.306605,5.74032 16.982,4.5254601 15.976783,3.9972215 15.385299,3.686398 14.056221,3.2159025 13.769676,3.2159025 h -0.210114 l 0.02407,1.0349271 0.02407,1.0349269 0.582382,0.2341861 c 0.320312,0.1288023 0.800861,0.362377 1.067886,0.519055 0.685314,0.4021083 1.729582,1.4520239 2.146554,2.1581622 1.152357,1.9515052 1.273355,4.4186552 0.313887,6.4001402 -0.718305,1.483435 -2.13356,2.790005 -3.588524,3.312941 l -0.522185,0.187681 -0.02407,1.085129 -0.02407,1.085129 0.257192,-0.05109 c 0.141455,-0.0281 0.605237,-0.180953 1.030625,-0.339666 z m -3.168425,-8.146548 c 0,-5.3661937 -0.02774,-7.7486222 -0.09022,-7.7486222 -0.04962,0 -1.181483,1.0728862 -2.5152559,2.3841915 l -2.42504,2.3841916 h -1.89946 -1.899461 v 2.9802391 2.98024 h 1.899461 1.89946 l 2.42504,2.384191 c 1.3337729,1.311306 2.4656379,2.384191 2.5152559,2.384191 0.06247,0 0.09022,-2.382427 0.09022,-7.748622 z M 14.3093,15.27764 c 0.783366,-0.572828 1.347944,-1.375734 1.613267,-2.294283 0.10646,-0.368562 0.135223,-0.746652 0.113898,-1.497165 -0.02796,-0.983771 -0.03581,-1.018578 -0.387946,-1.720808 C 15.253623,8.9778992 14.541308,8.1767631 13.985676,7.8951952 13.80512,7.8036982 13.636568,7.7288365 13.611116,7.7288365 c -0.02545,0 -0.04628,1.7817574 -0.04628,3.9594605 0,3.323481 0.01914,3.959461 0.119153,3.959461 0.06554,0 0.346923,-0.166553 0.625307,-0.370118 z"
     id="path4" /><g
     id="g6"
     transform="matrix(1.0020301,0,0,1.0039083,36.231689,9.149565)"
     inkscape:export-filename="..\Propuestas\g6.svg"
     inkscape:export-xdpi="96"
     inkscape:export-ydpi="96"><g
       style="fill:#ffffff"
       id="g2"
       transform="matrix(0.02440387,0,0,0.02424077,-36.218178,14.243752)"><path
         d="m 560,-131 v -82 q 90,-26 145,-100 55,-74 55,-168 0,-94 -55,-168 -55,-74 -145,-100 v -82 q 124,28 202,125.5 78,97.5 78,224.5 0,127 -78,224.5 Q 684,-159 560,-131 Z M 120,-360 v -240 h 160 l 200,-200 v 640 L 280,-360 Z m 440,40 v -322 q 47,22 73.5,66 26.5,44 26.5,96 0,51 -26.5,94.5 Q 607,-342 560,-320 Z"
         id="path1-8"
         style="fill:#ffffff" /></g><path
       style="opacity:0.68;fill:#f46f3e;fill-opacity:1;stroke-width:0.0439083"
       d="m -25.818088,14.727993 c -1.280042,-0.196305 -2.371381,-0.526715 -3.479671,-1.053491 -3.37463,-1.603983 -5.803692,-4.6234822 -6.661399,-8.280602 -0.13758,-0.5866177 -0.199124,-1.378404 -0.199124,-2.5618138 0,-1.6564319 0.09087,-2.34827017 0.452732,-3.44680257 0.691919,-2.10051793 1.67356,-3.72004663 3.088387,-5.09527413 1.83524,-1.7838727 4.124527,-2.9353459 6.601488,-3.3204381 0.637761,-0.099152 2.907847,-0.1139799 3.534619,-0.023087 3.395062,0.4923433 6.488187,2.4571443 8.377171,5.321309 0.75198,1.1401878 1.514411,3.00127239 1.764469,4.30705159 0.184287,0.96232181 0.174138,3.77915641 -0.01663,4.61509951 -0.61897,2.7123535 -1.971051,4.9836515 -4.004531,6.7270215 -1.903575,1.631999 -4.144299,2.600492 -6.556214,2.833749 -0.675239,0.0653 -2.416226,0.05167 -2.9013,-0.02272 z m 4.083473,-3.797189 c 0.676458,-0.226885 1.359719,-0.530663 1.836897,-0.816685 1.024533,-0.6141095 2.347057,-1.8919617 2.951317,-2.8516292 1.709841,-2.715514 1.722864,-6.53584192 0.03164,-9.2822722 -0.647013,-1.0507048 -1.908403,-2.3035205 -2.975706,-2.9554778 -0.579993,-0.3542864 -1.981808,-0.8851791 -2.472814,-0.9364994 l -0.251775,-0.026316 0.01637,1.048049 c 0.009,0.5764271 0.02927,1.0594375 0.04505,1.0733568 0.01577,0.013919 0.216383,0.1009536 0.445804,0.1934096 1.060983,0.4275721 1.582872,0.7666062 2.329456,1.5132828 0.589132,0.5892057 0.88763,0.9747444 1.157685,1.49526073 0.551548,1.06308083 0.784838,2.02324677 0.784121,3.22726097 -5.85e-4,0.9835725 -0.150035,1.7497827 -0.505295,2.5905904 -0.676677,1.6015158 -2.179273,3.0275093 -3.798899,3.6052308 l -0.45006,0.1605367 -3.81e-4,0.8613858 c -2.1e-4,0.473763 -0.01284,0.965119 -0.02807,1.091905 l -0.02769,0.230518 0.126864,-5.01e-4 c 0.06977,-2.76e-4 0.423245,-0.09991 0.785488,-0.221406 z m -2.773178,-1.1282733 c 0.0157,-0.307907 0.02855,-3.5434008 0.02855,-7.1899861 0,-6.6628616 -0.01477,-7.7503549 -0.105214,-7.749206 -0.06484,8.236e-4 -1.203917,1.0840937 -3.242821,3.0839478 l -1.689905,1.65753879 h -1.915592 -1.915591 V 2.6125446 5.620264 h 1.914002 1.914003 l 1.851135,1.8149062 c 2.188864,2.1460253 3.011183,2.9271918 3.081398,2.9271918 0.03518,0 0.06052,-0.177223 0.08003,-0.5598313 z m 2.456779,-3.4766232 c 1.049007,-0.6847985 1.769783,-1.7858078 1.923839,-2.9387259 0.06493,-0.4859025 0.01741,-1.7589209 -0.07772,-2.0819846 -0.184081,-0.62517492 -0.80943,-1.5838431 -1.37431,-2.10683545 -0.295133,-0.27324805 -0.884864,-0.63267885 -0.960928,-0.58566925 -0.08996,0.055598 -0.08335,7.7355087 0.0068,7.8747609 0.05868,0.090664 0.135301,0.065001 0.482336,-0.1615457 z"
       id="path5" /></g></svg>
