<svg fill="none" height="24" viewBox="0 0 25 24" width="25" xmlns="http://www.w3.org/2000/svg" xmlns:xlink="http://www.w3.org/1999/xlink"><clipPath id="a"><path d="m.75 0h24v24h-24z"/></clipPath><g clip-path="url(#a)"><path d="m12.75 0c-6.624 0-12 5.376-12 12s5.376 12 12 12 12-5.376 12-12-5.376-12-12-12zm4.836 9.84-5.604 5.592c-.168.18-.396.264-.636.264s-.456-.084-.636-.264l-2.796-2.796c-.348-.348-.348-.924 0-1.272s.924-.348 1.272 0l2.16 2.16 4.968-4.956c.348-.36.924-.36 1.272 0 .348.348.348.912 0 1.272z" fill="#5ee785"/></g></svg>