<svg fill="none" height="24" viewBox="0 0 24 24" width="24" xmlns="http://www.w3.org/2000/svg"><g fill="#282573"><path d="m17.505 3.67749c-1.95 0-4.05.4-5.5 1.5-1.45-1.1-3.55-1.5-5.5-1.5-1.45 0-2.99.22-4.28.79-.73.33-1.22 1.04-1.22 1.85v11.28001c0 1.3 1.22 2.26 2.48 1.94.98-.25 2.02-.36 3.02-.36 1.56 0 3.22001.26 4.56.92.6.3 1.28.3 1.87 0 1.34-.67 3-.92 4.56-.92 1 0 2.04.11 3.02.36 1.26.33 2.48-.63 2.48-1.94v-11.28001c0-.81-.49-1.52-1.22-1.85-1.28-.57-2.82-.79-4.27-.79zm3.5 12.73001c0 .63-.58 1.09-1.2.98-.75-.14-1.53-.2-2.3-.2-1.7 0-4.15.65-5.5 1.5v-11.51001c1.35-.85 3.8-1.5 5.5-1.5.92 0 1.83.09 2.7.28.46.1.8.51.8.98z"/><path d="m13.985 10.1875c-.32 0-.61-.20001-.71-.52001-.13-.39.09-.82.48-.94 1.54-.5 3.53-.66 5.36-.45.41.05.71.42.66.83s-.42.71-.83.66c-1.62-.19-3.39-.04-4.73.39001-.08.01-.16.03-.23.03z"/><path d="m13.985 12.8475c-.32 0-.61-.2-.71-.52-.13-.39.09-.82.48-.94 1.53-.5 3.53-.66 5.36-.45.41.05.71.42.66.83s-.42.71-.83.66c-1.62-.19-3.39-.04-4.73.39-.08.02-.16.03-.23.03z"/><path d="m13.985 15.5075c-.32 0-.61-.2-.71-.52-.13-.39.09-.82.48-.94 1.53-.5 3.53-.66 5.36-.45.41.05.71.42.66.83s-.42.7-.83.66c-1.62-.19-3.39-.04-4.73.39-.08.02-.16.03-.23.03z"/></g></svg>